<mxfile host="app.diagrams.net" modified="2023-07-26T06:43:10.408Z" agent="Mozilla/5.0 (Macintosh; Intel Mac OS X 10_15_7) AppleWebKit/537.36 (KHTML, like Gecko) Chrome/115.0.0.0 Safari/537.36" version="21.3.7" etag="YRycSp47DsTkV5CV9fhz" type="github">
  <diagram name="第 1 页" id="uz88chexcgEevUPP2p3_">
    <mxGraphModel>
      <root>
        <mxCell id="0" />
        <mxCell id="1" parent="0" />
      </root>
    </mxGraphModel>
  </diagram>
</mxfile>
